<svg width="135" height="28" viewBox="0 0 135 28" fill="none" xmlns="http://www.w3.org/2000/svg">
<g clip-path="url(#clip0_2985_5613)">
<path d="M18.6983 26.762L17.7083 23.6437H8.57337L7.58292 26.762H1.23901L10.4097 1.08545H15.8755L25.1562 26.762H18.6983ZM13.1611 8.42059L10.0062 18.9852H16.2424L13.1611 8.42059Z" fill="#1F2127"/>
<path d="M25.863 1.08545H31.8789V26.762H25.863V1.08545Z" fill="#1F2127"/>
<path d="M33.5003 21.5158C33.7704 20.2481 34.2475 19.0335 34.9125 17.921C35.4909 16.9807 36.2154 16.1388 37.0587 15.4265C37.9202 14.7119 38.8336 14.0622 39.7913 13.483C40.5491 13.0424 41.2521 12.6204 41.9006 12.2172C42.4985 11.8502 43.0687 11.4395 43.6063 10.9885C44.0706 10.6027 44.462 10.1367 44.7619 9.61283C45.0483 9.09055 45.1937 8.50268 45.1837 7.90713C45.1837 6.88013 44.9025 6.1404 44.3401 5.68793C43.7438 5.22447 43.0041 4.98434 42.2492 5.00922C41.3902 4.98324 40.5547 5.29244 39.9197 5.87141C39.2961 6.44619 38.9843 7.40607 38.9843 8.75104H33.0782C33.0676 7.63375 33.2733 6.52499 33.6838 5.48579C34.0774 4.49714 34.6849 3.60777 35.4625 2.88137C36.2908 2.12021 37.264 1.53386 38.324 1.1574C39.5726 0.721253 40.8888 0.510016 42.2111 0.533502C43.346 0.528263 44.4759 0.682671 45.5677 0.992191C46.5833 1.27406 47.5357 1.74717 48.3739 2.38615C49.1974 3.03022 49.8573 3.85972 50.2996 4.80709C50.7993 5.90587 51.0439 7.10351 51.0149 8.31023C51.028 9.33101 50.7886 10.3392 50.3178 11.2451C49.867 12.1067 49.2924 12.8975 48.6122 13.5926C47.948 14.2701 47.2169 14.8787 46.4299 15.4086C45.6465 15.9347 44.9372 16.381 44.302 16.7474C43.421 17.3344 42.6934 17.8419 42.1194 18.27C41.6269 18.6261 41.1666 19.025 40.7441 19.4618C40.428 19.7861 40.184 20.1738 40.0285 20.5992C39.8868 21.0374 39.8187 21.4959 39.8268 21.9563H50.8317V26.7616H33.0051C32.9737 24.9999 33.1397 23.2404 33.5003 21.5158Z" fill="#1F2127"/>
<path d="M51.9681 5.59439C52.9961 5.61534 54.0232 5.52304 55.031 5.31918C55.704 5.19138 56.3383 4.90886 56.8836 4.49393C57.3211 4.13089 57.6404 3.64553 57.8006 3.09997C57.9839 2.44358 58.0704 1.76391 58.0571 1.08252H63.3048V26.7618H57.2525V9.77741H51.9681V5.59439Z" fill="#1F2127"/>
<path d="M70.1117 1.08545H75.7233V26.762H70.1117V1.08545Z" fill="#E91E63"/>
<path d="M96.4451 9.067V26.7483H90.8328V24.2531C90.6025 24.6825 90.3053 25.0726 89.9523 25.4084C89.5749 25.771 89.1491 26.0796 88.687 26.3254C88.1915 26.5888 87.6686 26.7973 87.1278 26.9474C86.5791 27.1041 86.0112 27.1843 85.4404 27.1857C84.2351 27.1994 83.0408 26.9555 81.9373 26.4704C80.9035 26.0153 79.9737 25.3539 79.2046 24.5267C78.4273 23.676 77.8286 22.6781 77.4437 21.5919C76.6123 19.2045 76.6123 16.6062 77.4437 14.2187C77.8286 13.1325 78.4273 12.1346 79.2046 11.2839C79.9737 10.4567 80.9035 9.79534 81.9373 9.34026C83.0412 8.85556 84.2358 8.61223 85.4412 8.62658C86.012 8.6279 86.5799 8.70808 87.1286 8.86486C87.672 9.0163 88.1955 9.23187 88.6878 9.50703C89.151 9.76571 89.5767 10.0865 89.953 10.4606C90.297 10.7977 90.5932 11.1803 90.8335 11.5976V9.067H96.4451ZM86.6144 22.4195C87.2093 22.4286 87.7986 22.3033 88.3383 22.053C88.8384 21.819 89.2875 21.4887 89.66 21.0812C90.0356 20.6632 90.3282 20.1777 90.5222 19.6503C90.7309 19.0933 90.8363 18.5029 90.8331 17.908C90.8417 16.7481 90.4239 15.6254 89.6592 14.7532C89.2908 14.3365 88.841 13.9994 88.3376 13.7627C87.795 13.5211 87.2076 13.3962 86.6136 13.3962C86.0196 13.3962 85.4322 13.5211 84.8896 13.7627C84.3863 13.9995 83.9365 14.3366 83.568 14.7532C82.8037 15.6256 82.3861 16.7482 82.3944 17.908C82.3909 18.5029 82.4963 19.0934 82.7055 19.6503C82.8993 20.1776 83.1917 20.6632 83.5672 21.0812C83.9398 21.4885 84.3889 21.8187 84.8889 22.053C85.4291 22.3036 86.0189 22.4289 86.6144 22.4195Z" fill="#E91E63"/>
<path d="M103.265 26.762H97.6525V1.08545H103.265V11.6116C103.506 11.1943 103.802 10.8118 104.146 10.4746C104.526 10.0974 104.958 9.77635 105.428 9.52106C105.923 9.24998 106.446 9.0346 106.988 8.8789C107.542 8.71957 108.116 8.63935 108.693 8.64061C109.899 8.6269 111.093 8.87075 112.196 9.35585C113.23 9.81102 114.16 10.4724 114.929 11.2995C115.706 12.1504 116.305 13.1482 116.691 14.2343C117.521 16.6218 117.521 19.2201 116.691 21.6076C116.305 22.6935 115.706 23.6915 114.929 24.5423C114.16 25.3694 113.23 26.0308 112.196 26.486C111.093 26.9711 109.899 27.2149 108.693 27.2012C108.116 27.2025 107.542 27.1223 106.988 26.9629C106.448 26.8088 105.926 26.6004 105.428 26.341C104.959 26.0984 104.527 25.7896 104.146 25.424C103.793 25.0881 103.495 24.6982 103.265 24.2687V26.762ZM107.521 22.4332C108.103 22.4396 108.68 22.3144 109.208 22.0667C109.708 21.8326 110.157 21.5024 110.53 21.0948C110.905 20.677 111.198 20.1913 111.392 19.6639C111.601 19.1069 111.706 18.5165 111.703 17.9217C111.711 16.7617 111.294 15.6391 110.529 14.7669C110.16 14.3502 109.711 14.0131 109.207 13.7764C108.68 13.5285 108.103 13.4025 107.521 13.4079C106.92 13.4005 106.325 13.5257 105.778 13.7744C105.268 14.0076 104.812 14.345 104.44 14.7649C103.675 15.6372 103.257 16.7598 103.266 17.9197C103.262 18.5146 103.368 19.105 103.577 19.662C103.77 20.1895 104.063 20.6752 104.439 21.0929C104.815 21.5035 105.271 21.834 105.778 22.0646C106.324 22.3146 106.919 22.4405 107.521 22.4332Z" fill="#E91E63"/>
<path d="M127.86 16.3439C128.641 16.564 129.375 16.8024 130.06 17.0592C130.7 17.2924 131.305 17.6135 131.858 18.0131C132.366 18.3874 132.786 18.8697 133.086 19.4253C133.414 20.0852 133.571 20.8165 133.545 21.5528C133.576 22.4789 133.36 23.3965 132.921 24.2124C132.504 24.9355 131.911 25.5412 131.197 25.9734C130.412 26.4459 129.548 26.7749 128.648 26.9452C127.627 27.1456 126.588 27.2438 125.548 27.2382C123.029 27.2382 121.042 26.6881 119.587 25.5877C118.132 24.4873 117.699 22.9099 117.699 20.8554H122.907C122.907 21.7853 123.171 22.4517 123.696 22.8547C124.288 23.2788 125.004 23.4919 125.732 23.4599C126.313 23.4849 126.89 23.3519 127.401 23.075C127.614 22.9435 127.786 22.7559 127.9 22.5326C128.013 22.3093 128.062 22.0589 128.043 21.8094C128.058 21.5096 127.96 21.2153 127.767 20.9841C127.528 20.7356 127.241 20.5363 126.924 20.3972C126.449 20.1775 125.958 19.9936 125.457 19.8467C124.857 19.6633 124.141 19.4371 123.311 19.1684C122.578 18.9481 121.88 18.7097 121.22 18.4532C120.601 18.2186 120.015 17.9041 119.477 17.5175C118.977 17.152 118.569 16.6747 118.286 16.1236C117.97 15.4599 117.819 14.7301 117.845 13.9957C117.845 12.1618 118.548 10.8046 119.954 9.92427C121.36 9.04396 123.262 8.60341 125.658 8.60263C126.794 8.58363 127.926 8.73832 129.015 9.06132C129.887 9.31696 130.698 9.74746 131.399 10.3266C132.01 10.8466 132.492 11.4991 132.812 12.2344C133.13 12.9756 133.293 13.7749 133.289 14.582H127.749C127.789 13.9612 127.584 13.3495 127.181 12.8762C126.948 12.6598 126.674 12.4941 126.373 12.3899C126.073 12.2857 125.755 12.2452 125.439 12.271C124.922 12.2584 124.414 12.3919 123.972 12.6562C123.768 12.7793 123.604 12.9553 123.493 13.1655C123.383 13.3755 123.333 13.6117 123.347 13.8484C123.337 14.1397 123.443 14.4233 123.641 14.6371C123.888 14.8805 124.182 15.0737 124.503 15.2058C124.963 15.4066 125.434 15.578 125.916 15.7193C126.477 15.8917 127.125 16.0998 127.86 16.3439Z" fill="#E91E63"/>
</g>
<defs>
<clipPath id="clip0_2985_5613">
<rect width="135" height="27" fill="white" transform="translate(0 0.399902)"/>
</clipPath>
</defs>
</svg>
