<svg width="203" height="29" viewBox="0 0 203 29" fill="none" xmlns="http://www.w3.org/2000/svg">
<g clip-path="url(#clip0_2985_5644)">
<path d="M20.369 21.0412H8.39808L6.11439 26.5663H0L11.4921 0.782715H17.3856L28.9144 26.5663H22.6528L20.369 21.0412ZM18.4905 16.5107L14.402 6.63928L10.3134 16.5107H18.4905Z" fill="#004C74"/>
<path d="M55.2368 0.782715V26.5663H50.3379L37.4829 10.912V26.5663H31.5896V0.782715H36.5253L49.3433 16.4371V0.782715H55.2368Z" fill="#004C74"/>
<path d="M84.1063 0.782715H90.0734V26.5663H84.1063V0.782715Z" fill="#004C74"/>
<path d="M96.1923 0.782715H107.905C110.705 0.782715 113.173 1.32294 115.309 2.40339C117.47 3.4593 119.14 4.95719 120.318 6.8971C121.522 8.83702 122.123 11.0961 122.123 13.6745C122.123 16.2528 121.522 18.512 120.318 20.4519C119.14 22.3917 117.47 23.9019 115.309 24.9825C113.173 26.0384 110.705 26.5663 107.905 26.5663H96.1923V0.782715ZM107.611 21.6674C110.189 21.6674 112.24 20.9554 113.762 19.5311C115.309 18.0823 116.082 16.1301 116.082 13.6745C116.082 11.2189 115.309 9.27902 113.762 7.85479C112.24 6.406 110.189 5.6816 107.611 5.6816H102.159V21.6674H107.611Z" fill="#004C74"/>
<path d="M139.11 27.0084C136.433 27.0084 134.015 26.4314 131.854 25.2772C129.717 24.123 128.035 22.5393 126.808 20.5256C125.604 18.4875 125.003 16.2039 125.003 13.6746C125.003 11.1454 125.604 8.87396 126.808 6.86038C128.035 4.82225 129.717 3.22613 131.854 2.07201C134.015 0.917882 136.433 0.34082 139.11 0.34082C141.787 0.34082 144.193 0.917882 146.329 2.07201C148.466 3.22613 150.148 4.82225 151.376 6.86038C152.603 8.87396 153.217 11.1454 153.217 13.6746C153.217 16.2039 152.603 18.4875 151.376 20.5256C150.148 22.5393 148.466 24.123 146.329 25.2772C144.193 26.4314 141.787 27.0084 139.11 27.0084ZM139.11 21.9254C140.632 21.9254 142.008 21.5815 143.235 20.894C144.463 20.1819 145.421 19.1997 146.108 17.9474C146.821 16.6949 147.177 15.2707 147.177 13.6746C147.177 12.0785 146.821 10.6543 146.108 9.40191C145.421 8.14957 144.463 7.17961 143.235 6.49204C142.008 5.77993 140.632 5.42386 139.11 5.42386C137.588 5.42386 136.212 5.77993 134.985 6.49204C133.757 7.17961 132.787 8.14957 132.075 9.40191C131.387 10.6543 131.043 12.0785 131.043 13.6746C131.043 15.2707 131.387 16.6949 132.075 17.9474C132.787 19.1997 133.757 20.1819 134.985 20.894C136.212 21.5815 137.588 21.9254 139.11 21.9254Z" fill="#004C74"/>
<path d="M201.74 21.778V26.5663H181.776V0.782715H201.262V5.5711H187.707V11.1698H199.678V15.8109H187.707V21.778H201.74Z" fill="#004C74"/>
<path d="M80.8654 0.823732L58.5483 0.82373V6.01096H66.6307V27.2424H72.7831V6.01096H80.8654V0.823732Z" fill="#004C74"/>
<path fill-rule="evenodd" clip-rule="evenodd" d="M170.399 10.5514V0.895996H164.293V10.5514H155.41V16.7988H164.293V26.4538H170.399V16.7988H179.277V10.5514H170.399Z" fill="#F86530"/>
</g>
<defs>
<clipPath id="clip0_2985_5644">
<rect width="203" height="27.6818" fill="white" transform="translate(0 0.34082)"/>
</clipPath>
</defs>
</svg>
