<svg width="141" height="40" viewBox="0 0 141 40" fill="none" xmlns="http://www.w3.org/2000/svg">
<g clip-path="url(#clip0_2985_5623)">
<path d="M51.4039 24.2853V14.7754H54.431V30.2738H51.4039V26.8937" fill="#2E2E2E"/>
<path d="M79.772 21.0718V16.5312H82.7586V21.0718H87.4455V23.5337H82.7586V34.1283C82.7242 34.4591 82.7554 34.7934 82.8507 35.112C82.9459 35.4306 83.1032 35.7273 83.3136 35.9849C83.8684 36.4022 84.5602 36.5948 85.2509 36.5248H87.4455V39.0473H84.7564C83.0966 39.0473 81.8505 38.6689 81.018 37.9021C80.1856 37.1351 79.772 35.884 79.772 34.1283V21.0718Z" fill="#2E2E2E"/>
<path d="M96.2848 21.5963C97.3658 21.0048 98.5844 20.7105 99.8163 20.7437V23.8262H99.0292C95.6861 23.8262 94.0128 25.6408 94.0095 29.2698V39.0421H91.0278V21.0716H94.0095V23.9927C94.5164 22.9881 95.3076 22.1547 96.2848 21.5963Z" fill="#2E2E2E"/>
<path d="M119.583 31.1716H105.219C105.217 31.9306 105.368 32.6824 105.662 33.3819C105.957 34.0814 106.39 34.7143 106.935 35.2427C107.48 35.7712 108.125 36.1842 108.833 36.4573C109.542 36.7304 110.298 36.858 111.056 36.8321C112.2 36.8727 113.328 36.5591 114.285 35.9341C115.137 35.3485 115.776 34.5023 116.107 33.5226H119.32C118.858 35.2079 117.837 36.6862 116.425 37.7151C114.865 38.8394 112.977 39.4159 111.056 39.3546C109.456 39.3811 107.878 38.9842 106.481 38.2043C105.132 37.4379 104.031 36.3019 103.307 34.9302C102.517 33.4187 102.121 31.7318 102.157 30.0264C102.132 28.3269 102.527 26.6475 103.307 25.1378C104.016 23.7802 105.105 22.6583 106.44 21.9089C107.864 21.1368 109.463 20.7474 111.082 20.7788C112.667 20.7456 114.232 21.1302 115.623 21.8938C116.903 22.6077 117.952 23.6717 118.65 24.9611C119.373 26.3166 119.739 27.8341 119.713 29.3705C119.702 29.9728 119.657 30.5739 119.583 31.1716ZM115.844 25.8138C115.355 25.0064 114.644 24.3567 113.796 23.9421C112.902 23.5102 111.919 23.2908 110.925 23.3013C109.506 23.265 108.126 23.7742 107.071 24.724C105.963 25.7821 105.31 27.2293 105.25 28.76H116.596C116.629 27.7267 116.368 26.7052 115.844 25.8138Z" fill="#2E2E2E"/>
<path d="M139.915 31.1716H125.551C125.548 31.9306 125.7 32.6824 125.994 33.3819C126.289 34.0814 126.721 34.7143 127.266 35.2427C127.811 35.7712 128.457 36.1842 129.165 36.4573C129.874 36.7304 130.629 36.858 131.388 36.8321C132.531 36.8727 133.66 36.5591 134.617 35.9341C135.469 35.3485 136.108 34.5023 136.438 33.5226H139.631C139.174 35.2128 138.157 36.6979 136.746 37.7352C135.187 38.8503 133.304 39.4196 131.388 39.3546C129.788 39.3811 128.21 38.9842 126.812 38.2043C125.469 37.4419 124.371 36.3111 123.649 34.9453C122.849 33.4312 122.447 31.7386 122.479 30.0264C122.442 28.3299 122.825 26.6506 123.594 25.1378C124.303 23.7802 125.391 22.6583 126.727 21.9089C128.15 21.1368 129.749 20.7474 131.368 20.7788C132.954 20.7456 134.519 21.1302 135.908 21.8938C137.188 22.6077 138.239 23.6717 138.935 24.9611C139.66 26.3166 140.026 27.8341 140 29.3705C140.002 29.9719 139.974 30.5731 139.915 31.1716ZM136.176 25.8138C135.687 25.0064 134.976 24.3567 134.128 23.9421C133.232 23.5102 132.251 23.2908 131.257 23.3013C129.838 23.265 128.458 23.7742 127.402 24.724C126.295 25.7821 125.642 27.2293 125.582 28.76H136.928C136.958 27.7269 136.697 26.7061 136.176 25.8138Z" fill="#2E2E2E"/>
<path d="M72.8152 21.0718V23.3218C73.7317 24.1885 74.4618 25.2331 74.9607 26.3916C75.4597 27.55 75.717 28.7982 75.717 30.0596C75.717 31.321 75.4597 32.5691 74.9607 33.7276C74.4618 34.886 73.7317 35.9306 72.8152 36.7972V39.0423H75.8422V21.0718H72.8152Z" fill="#2E2E2E"/>
<path d="M72.815 24.3507V23.3418C71.0912 21.7147 68.8084 20.8117 66.438 20.8193H66.2766C67.6589 20.8049 69.0208 21.1528 70.2269 21.8282C71.2999 22.4223 72.1936 23.2934 72.815 24.3507Z" fill="#2E2E2E"/>
<path d="M57.5992 29.9913C57.5629 28.3126 57.9462 26.6513 58.7142 25.1581C59.0216 24.5812 59.3941 24.0412 59.8241 23.5488C58.9343 24.4515 58.2389 25.5272 57.7812 26.7093C57.3234 27.8913 57.1128 29.1547 57.1624 30.4214C57.2121 31.688 57.5209 32.931 58.0698 34.0736C58.6187 35.2162 59.3961 36.2341 60.3538 37.0645C59.6902 36.4187 59.1363 35.6688 58.7142 34.8446C57.952 33.3421 57.5693 31.6759 57.5992 29.9913Z" fill="#00141E"/>
<path d="M70.1763 38.3055C68.9805 38.979 67.6288 39.3269 66.2563 39.3146H66.438C68.8083 39.322 71.0912 38.4191 72.8149 36.792V35.6973C72.1857 36.788 71.2743 37.6889 70.1763 38.3055Z" fill="#2E2E2E"/>
<path d="M75.716 30.0567C75.7176 28.7955 75.461 27.5474 74.9621 26.389C74.4633 25.2307 73.7326 24.1868 72.8151 23.3216V24.3305C72.1987 23.2601 71.3045 22.3764 70.227 21.7727C69.0209 21.0972 67.659 20.7493 66.2767 20.7636C63.8458 20.7997 61.5271 21.7931 59.8241 23.5284C59.394 24.0208 59.0217 24.5607 58.7142 25.1377C57.9462 26.6308 57.563 28.2921 57.5993 29.9708C57.5692 31.6554 57.952 33.3217 58.7142 34.8241C59.1364 35.6484 59.6902 36.3982 60.3539 37.044C61.9934 38.471 64.0833 39.2747 66.2566 39.3143C67.629 39.3266 68.9807 38.9787 70.1766 38.3053C71.2744 37.6887 72.1859 36.7877 72.8151 35.697V36.7968C73.7329 35.9307 74.4638 34.886 74.9627 33.7267C75.4616 32.5676 75.718 31.3186 75.716 30.0567ZM71.9978 33.5881C71.4947 34.5588 70.7269 35.3671 69.7831 35.919C68.85 36.4541 67.7912 36.731 66.7156 36.7211C65.653 36.7294 64.6077 36.4524 63.6886 35.919C62.7504 35.3648 61.9879 34.5569 61.489 33.5881C60.9219 32.4774 60.6409 31.2428 60.6717 29.996C60.6446 28.7691 60.9257 27.555 61.489 26.4646C61.9904 25.5067 62.7531 24.7108 63.6886 24.1691C64.6229 23.6463 65.6754 23.3718 66.7459 23.3718C67.8165 23.3718 68.869 23.6463 69.8032 24.1691C70.7429 24.7172 71.5101 25.5177 72.018 26.4797C72.5824 27.5697 72.8635 28.7841 72.8353 30.0113C72.8601 31.2532 72.5721 32.4816 71.9978 33.5831V33.5881Z" fill="#2E2E2E"/>
<path d="M51.404 23.2108V24.2854C50.7312 23.2107 49.7791 22.3388 48.6494 21.7629C47.5052 21.1483 46.23 20.8178 44.9313 20.7993C43.4821 20.8319 42.0608 21.204 40.7815 21.8857C39.5023 22.5674 38.4008 23.5396 37.5654 24.7243C37.4746 24.8756 37.3889 25.027 37.3032 25.1834C36.5462 26.6709 36.17 28.3228 36.2084 29.9913C36.1783 31.6759 36.5611 33.3421 37.3233 34.8447C37.5505 35.2813 37.8138 35.698 38.1103 36.0908C38.9527 37.0815 39.9938 37.884 41.1663 38.4462C42.3387 39.0086 43.6163 39.3181 44.9161 39.355C46.2704 39.3632 47.6032 39.0153 48.7806 38.3459C49.8783 37.7207 50.7851 36.8086 51.404 35.7074V36.9485C52.3545 36.0788 53.1137 35.0206 53.633 33.8416C54.1522 32.6625 54.4205 31.3882 54.4205 30.0999C54.4205 28.8114 54.1522 27.5372 53.633 26.358C53.1137 25.179 52.3545 24.1209 51.404 23.2512V23.2108ZM50.5867 33.5834C50.0837 34.5541 49.3157 35.3623 48.3719 35.9142C47.4345 36.452 46.3701 36.7289 45.2894 36.7164C44.2268 36.7247 43.1814 36.4476 42.2624 35.9142C41.3243 35.3601 40.5617 34.5521 40.0627 33.5834C39.4921 32.4737 39.2077 31.2389 39.2354 29.9913C39.2084 28.7644 39.4893 27.5501 40.0527 26.4599C40.5553 25.4969 41.3218 24.6972 42.2624 24.1542C43.1966 23.6315 44.2492 23.357 45.3197 23.357C46.3902 23.357 47.4428 23.6315 48.377 24.1542C49.3167 24.7023 50.0839 25.5029 50.5918 26.4648C51.1561 27.5548 51.4372 28.7693 51.4091 29.9964C51.4411 31.2422 51.1583 32.476 50.5867 33.5834Z" fill="#2E2E2E"/>
<path d="M51.4039 24.2851V23.2105C49.6953 21.6443 47.4609 20.7765 45.143 20.7788H44.9312C46.2299 20.7973 47.5051 21.1278 48.6493 21.7424C49.7815 22.3239 50.7339 23.2029 51.4039 24.2851Z" fill="#2E2E2E"/>
<path d="M36.2082 29.9914C36.172 28.3127 36.5553 26.6514 37.3233 25.1582C37.409 25.0019 37.4947 24.8506 37.5855 24.6992C36.3888 26.3829 35.7885 28.418 35.8798 30.4818C35.9713 32.5455 36.7491 34.5195 38.0901 36.0909C37.7935 35.6981 37.5303 35.2813 37.303 34.8447C36.5479 33.3404 36.172 31.6742 36.2082 29.9914Z" fill="#00141E"/>
<path d="M48.7806 38.3056C47.6032 38.9749 46.2704 39.3229 44.9161 39.3146H45.1432C47.461 39.3168 49.6953 38.449 51.404 36.8829V35.667C50.7851 36.7683 49.8783 37.6804 48.7806 38.3056Z" fill="#2E2E2E"/>
<path fill-rule="evenodd" clip-rule="evenodd" d="M24.3272 17.3027L19.1964 22.4386C18.877 22.7519 18.5943 23.1006 18.3539 23.4779C18.1071 23.8537 17.9008 24.2544 17.7384 24.6735C17.5772 25.0914 17.4572 25.5239 17.3801 25.9651C17.2985 26.4264 17.258 26.8941 17.2591 27.3626V39.0419H20.0136V27.3626C20.0044 27.0657 20.0212 26.7686 20.0641 26.4746C20.1113 26.199 20.1857 25.9286 20.2861 25.6675C20.3778 25.4304 20.4944 25.2037 20.6342 24.9914C20.7821 24.7751 20.9511 24.574 21.1387 24.3911L26.2796 19.2552L24.3272 17.3027Z" fill="#05CCC2"/>
<path fill-rule="evenodd" clip-rule="evenodd" d="M31.4913 10.5426C31.2891 10.0581 30.9943 9.6177 30.6235 9.24605L22.5515 1.17398C21.7993 0.422272 20.7795 0 19.7162 0C18.6528 0 17.6329 0.422272 16.8808 1.17398L15.9778 2.11236L4.12695 13.9582L6.07939 15.9106L17.9302 4.06479L18.8484 3.14155C19.0837 2.90946 19.4008 2.77903 19.7313 2.7783C19.8956 2.78042 20.0581 2.81292 20.2105 2.87416C20.3606 2.93737 20.4975 3.02805 20.6142 3.14155L28.6862 11.2136C28.7997 11.3304 28.8904 11.4672 28.9537 11.6172C29.0134 11.7699 29.0442 11.9325 29.0445 12.0965C29.0464 12.2601 29.0157 12.4224 28.9542 12.5741C28.8927 12.7256 28.8016 12.8635 28.6862 12.9794L27.763 13.8976L27.6873 13.9733L25.7349 15.9257L27.6873 17.8782L30.6387 14.9318C31.0051 14.5559 31.2948 14.112 31.4913 13.6252C31.6863 13.1441 31.789 12.6307 31.794 12.1117V12.0612C31.7897 11.5404 31.687 11.0252 31.4913 10.5426Z" fill="#05CCC2"/>
<path fill-rule="evenodd" clip-rule="evenodd" d="M2.86559 20.2188C2.80151 20.0689 2.76889 19.9075 2.76973 19.7446V19.6386C2.78009 19.5302 2.80381 19.4234 2.84036 19.3208L0.822343 17.3027C0.307227 17.9725 0.0191503 18.7889 0 19.6335V19.7395C0.00259514 20.2588 0.105375 20.7727 0.302703 21.253C0.500028 21.7374 0.793506 22.1768 1.16541 22.5446L9.86306 31.2826V27.3525L3.13802 20.6224C3.02145 20.5072 2.92885 20.37 2.86559 20.2188Z" fill="#05CCC2"/>
<path fill-rule="evenodd" clip-rule="evenodd" d="M29.6497 15.9103L29.7254 15.986L30.6486 16.9091C31.0205 17.2799 31.3154 17.7206 31.5164 18.2057C31.7022 18.6614 31.8046 19.1467 31.8191 19.6385V19.7444C31.8165 20.2638 31.7137 20.7776 31.5164 21.258C31.319 21.7424 31.0256 22.1817 30.6537 22.5495L21.9409 31.2825V27.3523L28.671 20.6223C28.7876 20.507 28.8801 20.3699 28.9435 20.2187C29.0052 20.0681 29.0377 19.9072 29.0392 19.7444V19.6385C29.0301 19.5099 28.9993 19.3837 28.9484 19.2652C28.8865 19.1145 28.7957 18.9774 28.6811 18.8616L27.7578 17.9384L25.6541 15.8346L17.2792 7.45979L19.2317 5.50735L27.6065 13.8822L27.6822 13.9579L29.6497 15.9103ZM0.0353157 12.0558V12.1114C0.0377422 13.1661 0.458711 14.1768 1.20576 14.9214L10.6551 24.3909C11.0159 24.7559 11.299 25.1901 11.4876 25.6674C11.5857 25.9292 11.66 26.1994 11.7095 26.4746C11.7566 26.7682 11.7802 27.0651 11.7802 27.3625V39.0417H14.5348V27.3625C14.5375 26.8942 14.4987 26.4265 14.4187 25.965C14.34 25.5237 14.2183 25.0912 14.0555 24.6735C13.733 23.835 13.2379 23.0736 12.6025 22.4385L6.15495 15.986L6.07928 15.9103L4.12684 13.9579L4.05117 13.8822L3.13297 12.9639C2.90067 12.7288 2.7704 12.4116 2.7704 12.0811C2.7704 11.7505 2.90067 11.4333 3.13297 11.1982L11.2051 3.12609C11.32 3.01048 11.4574 2.91951 11.6086 2.8587C11.7597 2.79556 11.9217 2.76306 12.0854 2.76306C12.2491 2.76306 12.4111 2.79556 12.5622 2.8587C12.7134 2.91951 12.8508 3.01048 12.9657 3.12609L13.889 4.04934L13.9646 4.12501L15.9827 2.10699L15.907 2.18267L15.8314 2.10699L14.9081 1.18375C14.5373 0.811908 14.0966 0.517009 13.6116 0.316002C12.6275 -0.0890579 11.5232 -0.0890579 10.5391 0.316002C10.054 0.517009 9.61333 0.811908 9.24252 1.18375L1.17045 9.25582C0.423397 10.0005 0.00242654 11.0112 0 12.066L0.0353157 12.0558Z" fill="#2E2E2E"/>
<path fill-rule="evenodd" clip-rule="evenodd" d="M29.6498 15.9102L29.7255 15.9858L30.6487 16.9091C31.0205 17.2799 31.3154 17.7205 31.5164 18.2057C31.7021 18.6614 31.8047 19.1467 31.8191 19.6385V19.7444C31.8165 20.2637 31.7138 20.7776 31.5164 21.2579C31.3191 21.7424 31.0256 22.1817 30.6537 22.5495L21.9409 31.2825V27.3523L28.671 20.6223C28.7876 20.507 28.8802 20.3698 28.9434 20.2187C29.0052 20.0681 29.0378 19.9071 29.0393 19.7444V19.6385C29.0301 19.5098 28.9994 19.3837 28.9485 19.2652C28.8865 19.1145 28.7956 18.9774 28.6811 18.8615L27.7579 17.9383L25.6541 15.8345L17.2793 7.45976L19.2317 5.50732L27.6065 13.882L27.6822 13.9577L29.6498 15.9102Z" fill="#2E2E2E"/>
</g>
<defs>
<clipPath id="clip0_2985_5623">
<rect width="140.541" height="40" fill="white"/>
</clipPath>
</defs>
</svg>
