<svg width="161" height="29" viewBox="0 0 161 29" fill="none" xmlns="http://www.w3.org/2000/svg">
<g clip-path="url(#clip0_2985_5664)">
<path d="M16.1473 25.6556C14.6557 26.8545 13.1878 27.4653 11.7435 27.4653H7.55278V15.7705H10.9859C13.543 15.7705 15.2003 16.9241 15.958 19.2314H16.1236V12.219H15.958C15.224 14.187 13.5666 15.1823 10.9859 15.1823H7.55278V4.4602H10.9148C12.6195 4.4602 14.0875 5.0031 15.2713 6.06625C16.4552 7.12943 17.4732 8.69022 18.373 10.7487L18.515 10.6809L18.2072 3.87207H0V4.03042C1.1128 4.39234 1.68103 5.9984 1.68103 8.84858V23.0769C1.68103 25.9723 1.1128 27.5784 0 27.895V28.0534H19.2016L19.9593 21.1768L19.8172 21.1089C18.8702 22.9185 17.639 24.4341 16.1473 25.6556Z" fill="black"/>
<path d="M39.6332 10.3413H33.7613V10.5223C34.3295 10.658 34.7794 10.9069 35.1582 11.2914C35.537 11.6759 35.7975 12.1736 35.9395 12.807C36.0816 13.4404 35.9869 14.1868 35.6555 15.0464L32.7669 22.6469L29.2865 14.0511C28.4578 12.0152 28.7419 10.839 30.1861 10.5223V10.3639H20.6208V10.5223C21.4258 10.6354 22.1598 11.4271 22.8228 12.9201L29.5706 28.0758H31.441L31.6541 27.4424L36.5078 14.594C36.934 13.5308 37.4311 12.626 38.0232 11.8569C38.6152 11.0878 39.1597 10.6354 39.6332 10.5223V10.3413Z" fill="black"/>
<path d="M51.3554 24.5695C49.5085 24.5695 47.946 23.9814 46.7146 22.7825C45.4835 21.5836 44.797 19.9323 44.6785 17.806H55.4987C55.5698 17.6703 55.5935 17.2405 55.5935 16.5167C55.5935 14.6618 54.9306 13.1235 53.6045 11.902C52.2785 10.6805 50.5265 10.0698 48.3246 10.0698C45.7675 10.0698 43.6369 10.9068 41.932 12.6033C40.2274 14.2998 39.375 16.5393 39.375 19.299C39.375 21.9682 40.2274 24.1624 41.9556 25.8363C43.684 27.5102 45.815 28.3698 48.372 28.3698C50.4555 28.3698 52.1365 27.8495 53.3915 26.809C54.6463 25.7685 55.4513 24.5695 55.783 23.2123L55.6882 23.1445C54.6463 24.0945 53.202 24.5695 51.3554 24.5695ZM44.6549 17.0822C44.6549 15.182 45.01 13.6212 45.744 12.4224C46.4544 11.2234 47.3304 10.6353 48.3485 10.6353C49.2719 10.6353 49.982 11.0425 50.4555 11.8568C50.929 12.6712 51.166 13.8248 51.166 15.3177C51.166 16.0416 51.1185 16.6524 51 17.15H44.6785V17.0822H44.6549Z" fill="black"/>
<path d="M66.0115 26.6508C65.7035 25.9723 65.5614 24.8865 65.5614 23.4161V16.4942C65.5614 13.5536 65.6567 11.4272 65.8694 10.1379L65.7746 10.0474C63.8334 10.6355 61.4184 10.9749 58.5296 11.0427L58.4585 11.1784C59.0271 11.4498 59.4294 11.9702 59.7137 12.7619C59.9974 13.5536 60.1396 14.7977 60.1396 16.4942V23.4161C60.1396 25.0222 60.0217 26.108 59.7847 26.7187C59.5478 27.3295 59.0982 27.7366 58.4348 27.9402V28.076H67.6215V27.9402C66.8402 27.7366 66.2958 27.3068 66.0115 26.6508Z" fill="black"/>
<path d="M151.955 26.6508C151.648 25.9722 151.506 24.8865 151.506 23.4161V16.4942C151.506 13.5536 151.601 11.4272 151.814 10.1379L151.719 10.0474C149.778 10.6355 147.362 10.9748 144.474 11.0427L144.403 11.1784C144.971 11.4498 145.374 11.9701 145.658 12.7619C145.942 13.5536 146.084 14.7977 146.084 16.4942V23.4161C146.084 25.0222 145.966 26.108 145.729 26.7187C145.492 27.3295 145.042 27.7366 144.379 27.9402V28.076H153.565V27.9402C152.784 27.7366 152.24 27.3068 151.955 26.6508Z" fill="black"/>
<path d="M97.2392 26.651C96.7416 25.9723 96.103 24.6377 95.2501 22.6471L87.5555 3.87207H84.4539L76.3329 22.7376C75.7411 24.1627 75.0546 25.3164 74.3438 26.2438C73.6099 27.1712 72.9233 27.7141 72.2842 27.895V28.0534H79.7893V27.895C78.6057 27.6915 77.7533 27.1033 77.2563 26.1307C76.7351 25.158 76.783 23.8912 77.3511 22.353L78.4399 19.8195H87.8393L89.047 22.9185C90.1363 25.7462 89.8046 27.42 88.0288 27.895V28.0534H98.8018V27.895C98.2574 27.7367 97.713 27.3069 97.2392 26.651ZM78.7242 19.1183L83.3173 8.41878L87.5555 19.1183H78.7242Z" fill="black"/>
<path d="M107.206 8.12456C107.206 5.81724 107.395 4.23382 107.798 3.37424C108.2 2.51467 108.792 2.08488 109.573 2.08488C111.302 2.08488 112.58 3.985 113.362 7.80789L113.504 7.8305L115.184 3.23853C114.616 2.71825 113.811 2.31108 112.793 1.97177C111.752 1.63247 110.686 1.47412 109.573 1.47412C107.111 1.47412 105.193 2.01701 103.82 3.08018C102.447 4.16597 101.76 5.83989 101.76 8.12456V10.3414H100.505V10.9069H101.76V23.3934C101.76 24.9995 101.642 26.0853 101.405 26.696C101.168 27.3068 100.742 27.7139 100.079 27.9175V28.0532H109.195V27.9175C108.484 27.7366 107.963 27.3068 107.656 26.6281C107.348 25.9495 107.206 24.8637 107.206 23.4161V10.9069H111.515V10.3414H107.206V8.12456Z" fill="black"/>
<path d="M122.359 25.7682C120.322 25.7682 119.305 24.4336 119.305 21.7418V10.9066H124.182V10.3411H119.305V6.63132L119.139 6.56348C118.452 7.19682 117.458 7.94328 116.156 8.78027C114.853 9.6172 113.741 10.2054 112.817 10.5673V10.9292H114.143V22.2621C114.143 24.2527 114.64 25.7682 115.611 26.8088C116.605 27.8493 118.05 28.3696 119.967 28.3696C121.317 28.3696 122.429 28.0077 123.33 27.3065C124.229 26.6052 124.797 25.7456 124.987 24.773L124.892 24.7051C124.371 25.4063 123.519 25.7682 122.359 25.7682Z" fill="black"/>
<path d="M137.299 24.5695C135.452 24.5695 133.889 23.9814 132.659 22.7825C131.427 21.5836 130.741 19.9323 130.622 17.806H141.442C141.514 17.6703 141.537 17.2405 141.537 16.5167C141.537 14.6618 140.874 13.1235 139.548 11.902C138.222 10.6805 136.47 10.0698 134.269 10.0698C131.711 10.0698 129.58 10.9068 127.875 12.6033C126.171 14.2998 125.318 16.5393 125.318 19.299C125.318 21.9682 126.171 24.1624 127.9 25.8363C129.628 27.5102 131.758 28.3698 134.315 28.3698C136.399 28.3698 138.08 27.8495 139.335 26.809C140.59 25.7685 141.395 24.5695 141.726 23.2123L141.631 23.1445C140.566 24.0945 139.122 24.5695 137.299 24.5695ZM130.575 17.0822C130.575 15.182 130.93 13.6212 131.664 12.4224C132.374 11.2234 133.25 10.6353 134.269 10.6353C135.191 10.6353 135.902 11.0425 136.376 11.8568C136.849 12.6712 137.086 13.8248 137.086 15.3177C137.086 16.0416 137.038 16.6524 136.92 17.15H130.598V17.0822H130.575Z" fill="black"/>
<path d="M75.0546 13.3725L72.3079 11.9248L70.7926 9.30078L69.3011 11.9248L66.5312 13.3725L69.3011 14.8202L70.7926 17.4442L72.3079 14.8202L75.0546 13.3725Z" fill="#793CFB"/>
<path d="M158.255 11.9248L156.74 9.30078L155.248 11.9248L152.478 13.3725L155.248 14.8201L156.74 17.4442L158.255 14.8201L161.002 13.3725L158.255 11.9248Z" fill="#793CFB"/>
</g>
<defs>
<clipPath id="clip0_2985_5664">
<rect width="161" height="28" fill="white" transform="translate(0 0.869629)"/>
</clipPath>
</defs>
</svg>
