<svg width="80" height="41" viewBox="0 0 80 41" fill="none" xmlns="http://www.w3.org/2000/svg">
<g clip-path="url(#clip0_2985_5653)">
<path d="M79.0144 30.2424H74.6828V25.8056C74.6828 23.1846 72.6121 20.9794 69.9867 20.9214C67.2875 20.8583 65.0688 23.0319 65.0688 25.7109V30.2424H60.7373V25.8372C60.7373 20.7267 64.9104 16.5162 70.0396 16.6109C75.0051 16.7004 79.0144 20.7478 79.0144 25.7161V30.2424Z" fill="#454555"/>
<path d="M51.1283 10.2422H46.7968V30.242H51.1283V10.2422Z" fill="#454555"/>
<path d="M58.1125 16.8472H53.7809V30.2418H58.1125V16.8472Z" fill="#454555"/>
<path d="M55.9466 14.5579C57.1428 14.5579 58.1125 13.5918 58.1125 12.4C58.1125 11.2083 57.1428 10.2422 55.9466 10.2422C54.7506 10.2422 53.7809 11.2083 53.7809 12.4C53.7809 13.5918 54.7506 14.5579 55.9466 14.5579Z" fill="#454555"/>
<path d="M20.0733 33.5755C12.6849 33.5755 6.69112 27.6036 6.69112 20.2422C6.69112 12.8808 12.6849 6.90885 20.0733 6.90885V0.242188C8.98725 0.242188 0 9.1966 0 20.2422C0 31.2878 8.98725 40.2422 20.0733 40.2422V33.5755Z" fill="#F7D7DF"/>
<path d="M20.057 27.2454C16.1762 27.2454 13.0278 24.1086 13.0278 20.2419C13.0278 16.3754 16.1762 13.2385 20.057 13.2385V6.90869C12.6686 6.90869 6.6748 12.8806 6.6748 20.2419C6.6748 27.6034 12.6686 33.5753 20.057 33.5753V27.2454Z" fill="#F0A1B5"/>
<path d="M13.0599 20.2402C13.0599 24.1069 16.2083 27.2437 20.0892 27.2437V13.2368C16.2083 13.2368 13.0599 16.3736 13.0599 20.2402Z" fill="#EA4869"/>
<path d="M40.1449 20.2422C40.1449 9.1966 31.1576 0.242188 20.0715 0.242188V6.90885C27.46 6.90885 33.4538 12.8808 33.4538 20.2422C33.4538 27.6036 27.46 33.5755 20.0715 33.5755V40.2422C31.1576 40.2422 40.1449 31.2878 40.1449 20.2422Z" fill="#DDDDFB"/>
<path d="M33.4538 20.242C33.4538 12.8806 27.46 6.90869 20.0715 6.90869V13.2385C23.9525 13.2385 27.1008 16.3754 27.1008 20.242C27.1008 24.1087 23.9525 27.2455 20.0715 27.2455V33.5754C27.467 33.5754 33.4538 27.6104 33.4538 20.242Z" fill="#ACADF8"/>
<path d="M27.1007 20.2402C27.1007 16.3736 23.9524 13.2368 20.0715 13.2368V27.2437C23.9524 27.2437 27.1007 24.1069 27.1007 20.2402Z" fill="#5C20F4"/>
</g>
<defs>
<clipPath id="clip0_2985_5653">
<rect width="79.1667" height="40" fill="white" transform="translate(0 0.242188)"/>
</clipPath>
</defs>
</svg>
