<svg width="135" height="38" viewBox="0 0 135 38" fill="none" xmlns="http://www.w3.org/2000/svg">
<g clip-path="url(#clip0_2985_5677)">
<path fill-rule="evenodd" clip-rule="evenodd" d="M10.3694 33.8759C7.62631 33.2267 5.42496 31.8887 4.30518 30.1998V28.5552C6.24973 30.0395 8.60745 31.2244 10.8406 31.8602C10.5376 32.4031 10.3649 33.0286 10.3649 33.6944C10.3649 33.7554 10.3666 33.8158 10.3694 33.8759ZM23.9659 28.5552V30.1998C22.8463 31.8888 20.6449 33.2267 17.9016 33.8759C17.9046 33.8158 17.9062 33.7554 17.9062 33.6944C17.9062 33.0286 17.7335 32.4029 17.4306 31.8602C19.6636 31.2244 22.0213 30.0397 23.9659 28.5552Z" fill="#3A2F26"/>
<path fill-rule="evenodd" clip-rule="evenodd" d="M12.6527 33.4974L11.9355 34.2146L13.6034 35.8826L16.3359 33.1501L15.6187 32.4329L13.6034 34.4481L12.6527 33.4974ZM16.7701 32.0327C17.1174 32.543 17.3205 33.1591 17.3205 33.8228C17.3205 35.582 15.8946 37.0079 14.1356 37.0079C12.3764 37.0079 10.9507 35.582 10.9507 33.8228C10.9507 33.1591 11.1538 32.543 11.5009 32.0327C12.4235 32.2523 13.315 32.3719 14.1356 32.3719C14.956 32.3717 15.8477 32.2522 16.7701 32.0327Z" fill="#3A2F26"/>
<path d="M18.7129 13.8744C19.8278 13.8744 20.7316 14.7784 20.7316 15.8933C20.7316 17.0081 19.8276 17.9123 18.7129 17.9123C17.598 17.9123 16.6939 17.0081 16.6939 15.8933C16.6939 14.7786 17.598 13.8744 18.7129 13.8744ZM9.55819 13.8744C10.6731 13.8744 11.5771 14.7784 11.5771 15.8933C11.5771 17.0081 10.6731 17.9123 9.55819 17.9123C8.44344 17.9123 7.53927 17.0081 7.53927 15.8933C7.53945 14.7786 8.44344 13.8744 9.55819 13.8744ZM14.1355 29.3478C8.09248 29.3478 3.20798 25.2603 6.14149 21.5687C7.50661 19.8509 10.2771 18.5207 11.4369 17.959C14.1647 16.6378 13.3757 13.2451 11.2477 13.2451C10.9445 13.2451 9.89178 13.2425 9.12574 13.2425C7.14487 13.2425 5.59576 13.0144 5.59576 9.8477H6.60122C7.04375 9.8477 7.19821 9.83085 7.19821 10.285C7.19821 10.6683 7.2307 11.0717 7.56255 11.266C7.72935 11.3635 8.00734 11.4135 8.40505 11.4166C8.79945 11.4197 10.3465 11.427 11.4671 11.427C12.7683 11.427 13.6645 11.6804 14.136 12.7552C14.6074 11.6804 15.5036 11.427 16.8049 11.427C17.9256 11.427 19.4725 11.4197 19.8669 11.4166C20.2648 11.4135 20.5426 11.3635 20.7094 11.266C21.0414 11.0717 21.0737 10.6685 21.0737 10.285C21.0737 9.83085 21.2282 9.8477 21.6707 9.8477H22.6762C22.6762 13.0144 21.1271 13.2425 19.146 13.2425C18.38 13.2425 17.3272 13.2451 17.0242 13.2451C14.896 13.2451 14.107 16.6377 16.835 17.959C17.9946 18.5207 20.7652 19.8509 22.1303 21.5687C25.0631 25.2601 20.1784 29.3478 14.1355 29.3478ZM24.1172 3.54353C24.3118 5.06485 24.4022 5.66826 24.5135 6.90429C24.5537 7.35046 24.631 7.62898 24.1806 7.50996C22.9573 7.18662 22.3633 7.02921 21.1398 6.70587C20.5956 6.56201 20.1713 6.58147 20.4906 6.13633C21.309 4.99604 22.1565 3.97112 23.3154 3.11247C23.8919 2.68523 24.0305 2.86575 24.1172 3.54353ZM3.99991 4.73473C4.04369 4.39454 4.09391 4.01282 4.15385 3.54353C4.24055 2.86575 4.3792 2.68523 4.95551 3.1123C6.11439 3.97095 6.96192 4.99587 7.78026 6.13616C8.09977 6.58129 7.67532 6.56183 7.13132 6.7057C5.90781 7.02903 5.31377 7.18662 4.09043 7.50979C3.64026 7.6288 3.7174 7.35046 3.75753 6.90411C3.78603 6.58894 3.81296 6.31494 3.84076 6.05641L3.99991 4.73473ZM18.0982 6.03643C15.4433 5.71205 12.7883 5.7282 10.1335 6.03643C9.2107 4.43832 5.53894 5.10081e-09 3.89514 5.10081e-09C3.19651 5.10081e-09 2.62993 0.566408 2.62993 1.26504L2.16603 4.7349L2.10209 5.2127L1.94537 6.38548L0.0395616 20.6376C-0.674357 25.9761 8.43788 31.7109 14.1355 31.7109C19.8332 31.7109 28.9454 25.9763 28.2315 20.6376L25.6411 1.26504C25.6411 0.566408 25.0747 5.10081e-09 24.3759 5.10081e-09C22.7323 -0.00017374 19.0208 4.43832 18.0982 6.03643Z" fill="#3A2F26"/>
<path d="M17.2517 21.0512C17.545 21.4312 17.5016 21.9999 17.1551 22.3215C14.4248 24.8519 13.8511 24.8564 11.116 22.3215C10.7696 22.0001 10.7261 21.4312 11.0194 21.0512C11.9033 20.0824 16.4038 20.1219 17.2517 21.0512Z" fill="#3A2F26"/>
<path fill-rule="evenodd" clip-rule="evenodd" d="M10.113 14.9407C10.3064 14.9567 10.4984 15.1454 10.5418 15.3622C10.5852 15.579 10.4636 15.742 10.2702 15.7258C10.0769 15.7098 9.88487 15.5212 9.84143 15.3043C9.79799 15.0875 9.91961 14.9247 10.113 14.9407ZM19.2675 14.9407C19.4609 14.9567 19.6529 15.1454 19.6963 15.3622C19.7397 15.579 19.6183 15.742 19.4247 15.7258C19.2314 15.7098 19.0392 15.5212 18.9958 15.3043C18.9525 15.0875 19.0741 14.9247 19.2675 14.9407ZM18.7129 14.3755C19.5514 14.3755 20.2309 15.0552 20.2309 15.8937C20.2309 16.7322 19.5512 17.4117 18.7129 17.4117C17.8746 17.4117 17.1947 16.732 17.1947 15.8937C17.1947 15.0552 17.8744 14.3755 18.7129 14.3755ZM9.55821 14.3755C10.3967 14.3755 11.0764 15.0552 11.0764 15.8937C11.0764 16.7322 10.3967 17.4117 9.55821 17.4117C8.71989 17.4117 8.04004 16.732 8.04004 15.8937C8.04021 15.0552 8.71989 14.3755 9.55821 14.3755Z" fill="#3A2F26"/>
<path d="M9.01738 25.7059C8.92234 25.5403 8.97951 25.329 9.14491 25.234C9.31049 25.1389 9.52176 25.1959 9.6168 25.3615C9.75545 25.6016 9.97593 25.7901 10.2254 25.9241C10.5178 26.0808 10.8466 26.1606 11.1334 26.1606C11.7014 26.1606 12.0253 25.9354 12.5599 25.7356C14.0695 25.1714 14.1444 25.1507 15.6543 25.7149C16.1891 25.9147 16.5697 26.1606 17.1377 26.1606C17.4246 26.1606 17.7533 26.081 18.0458 25.9241C18.2954 25.7901 18.5159 25.6016 18.6544 25.3615C18.7494 25.1959 18.9609 25.1389 19.1264 25.234C19.2919 25.329 19.349 25.5405 19.2538 25.7059C19.0453 26.0671 18.7268 26.3435 18.3712 26.5343C17.9747 26.7469 17.528 26.855 17.1377 26.855C16.4519 26.855 15.7846 26.6055 15.1918 26.384C14.154 25.9964 14.117 25.9964 13.0792 26.384C12.4864 26.6055 11.8192 26.855 11.1334 26.855C10.743 26.855 10.2965 26.7469 9.90001 26.5343C9.54435 26.3435 9.22588 26.0669 9.01738 25.7059Z" fill="#3A2F26"/>
<path d="M37.5173 26.628V10.3799H44.3775C44.5384 10.3799 44.753 10.3799 45.0207 10.3978C45.2799 10.4066 45.5211 10.4334 45.7353 10.469C46.7005 10.621 47.4952 10.9425 48.1203 11.425C48.7371 11.9161 49.1925 12.5324 49.4873 13.274C49.7822 14.0157 49.925 14.8373 49.925 15.7484C49.925 16.6596 49.7822 17.4812 49.4873 18.2224C49.1836 18.9637 48.7277 19.58 48.1118 20.0717C47.4865 20.5629 46.6913 20.8755 45.7355 21.0277C45.5213 21.0635 45.2801 21.0812 45.0122 21.0989C44.7352 21.117 44.5297 21.117 44.3777 21.117H40.5902V26.6282H37.5173V26.628ZM40.5902 18.2585H44.2437C44.4046 18.2585 44.5742 18.2493 44.7615 18.2314C44.9493 18.2135 45.1192 18.1869 45.2797 18.1421C45.6908 18.0259 46.0121 17.8386 46.2355 17.5705C46.4678 17.3026 46.6195 17.0079 46.7088 16.6773C46.7983 16.3553 46.8341 16.0428 46.8341 15.7483C46.8341 15.4534 46.7983 15.1407 46.7088 14.8191C46.6195 14.4886 46.4678 14.1936 46.2355 13.9259C46.0121 13.6576 45.6908 13.4701 45.2797 13.3541C45.119 13.3091 44.9491 13.2828 44.7615 13.2649C44.5742 13.2555 44.4046 13.2467 44.2437 13.2467H40.5902V18.2585ZM57.2584 26.9673C56.0082 26.9673 54.9092 26.6907 53.9623 26.1545C53.0065 25.6184 52.265 24.8772 51.7293 23.9301C51.1933 22.9926 50.9162 21.9117 50.9162 20.6878C50.9162 19.3568 51.1841 18.2045 51.7114 17.2128C52.2384 16.2302 52.9617 15.4623 53.882 14.9172C54.8111 14.372 55.874 14.1043 57.0797 14.1043C58.3574 14.1043 59.4469 14.3991 60.3405 15.0065C61.2336 15.6047 61.8947 16.4535 62.3236 17.5432C62.7521 18.6329 62.9041 19.9193 62.7792 21.3934H61.2961H59.7418H54.2217C54.3201 22.1169 54.5522 22.7154 54.9094 23.1621C55.4009 23.7876 56.1241 24.1 57.0798 24.1C57.6787 24.1 58.1967 23.966 58.6255 23.707C59.0544 23.4389 59.3757 23.064 59.608 22.5634L62.6722 23.4481C62.2164 24.5554 61.4928 25.422 60.5014 26.0387C59.5185 26.6549 58.4288 26.9673 57.2584 26.9673ZM59.6702 19.1158C59.5809 18.4547 59.411 17.9364 59.1523 17.5792C58.7592 17.0342 58.1068 16.7664 57.2138 16.7664C56.1687 16.7664 55.4006 17.0792 54.9091 17.713C54.6231 18.0794 54.4269 18.5438 54.3016 19.1156H59.6702V19.1158ZM64.9494 26.628V14.444H67.6562V17.4186L67.3614 17.0343C67.5223 16.6146 67.737 16.2304 67.9959 15.882C68.2636 15.5427 68.5854 15.2567 68.9692 15.0248C69.2641 14.846 69.577 14.7027 69.9252 14.6048C70.2737 14.4975 70.6311 14.4349 70.9972 14.4083C71.3632 14.3814 71.7387 14.3993 72.1048 14.4438V17.3024C71.7651 17.2041 71.3725 17.1596 70.9259 17.195C70.4791 17.2308 70.0768 17.3382 69.7108 17.5079C69.3537 17.6775 69.0497 17.8919 68.8 18.1689C68.55 18.4458 68.3621 18.7674 68.237 19.1337C68.1033 19.5088 68.0405 19.9284 68.0405 20.4022V26.628H64.9494ZM88.5496 26.628V19.4285C88.5496 18.6242 88.3619 17.9901 87.9778 17.5434C87.6029 17.097 87.0755 16.8736 86.4056 16.8736C85.977 16.8736 85.6017 16.9719 85.2891 17.1775C84.9765 17.374 84.7262 17.6509 84.5568 18.008C84.378 18.3655 84.2887 18.7763 84.2887 19.2496V26.6278H81.2158V19.4283C81.2158 18.6241 81.0285 17.9899 80.6529 17.5432C80.2687 17.0969 79.7421 16.8734 79.0718 16.8734C78.438 16.8734 77.9193 17.0969 77.5355 17.5345C77.1514 17.9722 76.9549 18.544 76.9549 19.2496V26.6278H73.8641V14.4438H76.5707V15.7748C76.9189 15.3372 77.3569 14.9798 77.8749 14.7027C78.5447 14.3281 79.2951 14.1489 80.1346 14.1489C81.0905 14.1489 81.8767 14.3543 82.4838 14.7565C82.9932 15.0958 83.3953 15.5247 83.6811 16.0424C84.0649 15.471 84.5654 15.0152 85.1817 14.6848C85.8519 14.3279 86.5842 14.1489 87.397 14.1489C88.7906 14.1489 89.8447 14.5598 90.5501 15.3815C91.2647 16.2035 91.6221 17.2847 91.6221 18.6152V26.6278H88.5496V26.628ZM94.4182 12.7468V10.04H97.4825V12.7468H94.4182ZM94.4182 26.628V14.444H97.4825V26.628H94.4182ZM107.817 26.628C106.969 26.78 106.147 26.8513 105.343 26.8337C104.53 26.8156 103.807 26.6728 103.173 26.4047C102.538 26.1366 102.056 25.7084 101.725 25.1095C101.422 24.5556 101.261 23.9926 101.252 23.4123C101.234 22.8405 101.225 22.1883 101.225 21.4563V16.8111H99.1527V14.4438H101.225V11.0587H104.298V14.4438H107.817V16.8111H104.298V21.2772C104.298 21.751 104.307 22.1794 104.316 22.5549C104.325 22.939 104.396 23.2427 104.539 23.466C104.816 23.8946 105.245 24.1271 105.843 24.1627C106.433 24.2076 107.094 24.1719 107.817 24.0734V26.628ZM110.658 26.628V23.5551H113.722V26.628H110.658ZM117.241 12.7468V10.04H120.314V12.7468H117.241ZM117.241 26.628V14.444H120.314V26.628H117.241ZM128.818 26.9673C127.585 26.9673 126.513 26.6907 125.585 26.1366C124.664 25.592 123.941 24.8325 123.431 23.8677C122.914 22.894 122.655 21.7864 122.655 20.536C122.655 19.2586 122.922 18.1421 123.44 17.1775C123.967 16.2127 124.7 15.4534 125.62 14.9174C126.549 14.3722 127.612 14.1045 128.818 14.1045C130.042 14.1045 131.123 14.3814 132.051 14.9261C132.98 15.4711 133.704 16.2302 134.222 17.195C134.74 18.1598 134.999 19.2763 134.999 20.536C134.999 21.7956 134.74 22.9121 134.213 23.8769C133.695 24.8414 132.963 25.6008 132.033 26.1458C131.105 26.6909 130.033 26.9673 128.818 26.9673ZM128.818 24.1002C129.801 24.1002 130.533 23.7609 131.024 23.0998C131.507 22.43 131.748 21.5812 131.748 20.536C131.748 19.4464 131.507 18.5886 131.016 17.9364C130.515 17.2934 129.783 16.972 128.818 16.972C128.148 16.972 127.594 17.1148 127.166 17.4185C126.737 17.7222 126.424 18.1419 126.218 18.6691C126.013 19.2049 125.906 19.8304 125.906 20.5358C125.906 21.6255 126.156 22.4922 126.647 23.1352C127.139 23.7789 127.863 24.1002 128.818 24.1002Z" fill="#3A2F26"/>
</g>
<defs>
<clipPath id="clip0_2985_5677">
<rect width="135" height="37.0077" fill="white"/>
</clipPath>
</defs>
</svg>
