<svg width="128" height="34" viewBox="0 0 128 34" fill="none" xmlns="http://www.w3.org/2000/svg">
<g clip-path="url(#clip0_2985_5685)">
<path d="M3.59803 26.5483C4.13017 26.5482 4.65572 26.666 5.13682 26.8934C5.61793 27.1208 6.04261 27.452 6.38027 27.8633C6.71793 28.2746 6.96017 28.7557 7.08952 29.2718C7.21888 29.788 7.23214 30.3264 7.12834 30.8484C7.02454 31.3703 6.80628 31.8627 6.48927 32.2901C6.17226 32.7175 5.76439 33.0692 5.29506 33.32C4.82573 33.5708 4.30662 33.7144 3.77512 33.7404C3.24362 33.7664 2.71297 33.6742 2.2214 33.4704C1.45257 33.1517 0.818004 32.5763 0.425766 31.8423C0.0335289 31.1083 -0.0921205 30.2609 0.0702181 29.4447C0.232557 28.6284 0.672843 27.8936 1.31609 27.3655C1.95934 26.8374 2.76577 26.5486 3.59803 26.5483" fill="#7149FD"/>
<path d="M72.1808 21.0448C72.1808 22.1989 71.8386 23.3272 71.1974 24.2868C70.5562 25.2464 69.6448 25.9944 68.5785 26.4361C67.5122 26.8777 66.3389 26.9933 65.2069 26.7681C64.0749 26.543 63.0352 25.9872 62.2191 25.1711C61.4029 24.355 60.8472 23.3152 60.622 22.1832C60.3968 21.0513 60.5124 19.8779 60.9541 18.8116C61.3958 17.7453 62.1437 16.834 63.1033 16.1928C64.063 15.5516 65.1912 15.2093 66.3454 15.2093C67.8925 15.211 69.3758 15.8263 70.4698 16.9203C71.5638 18.0143 72.1792 19.4976 72.1808 21.0448M77.7462 0.302735H73.5837C73.4717 0.302597 73.3608 0.324539 73.2573 0.367307C73.1538 0.410075 73.0597 0.47283 72.9804 0.551983C72.9012 0.631136 72.8383 0.725134 72.7954 0.828603C72.7525 0.932072 72.7304 1.04298 72.7304 1.15499V11.1855C71.1799 10.0893 69.3927 9.37423 67.5139 9.09838C65.6352 8.82253 63.7179 8.99368 61.9177 9.59793C60.1175 10.2022 58.4852 11.2225 57.1533 12.576C55.8215 13.9295 54.8277 15.5781 54.2525 17.3878C53.6774 19.1975 53.5372 21.1174 53.8434 22.9914C54.1495 24.8655 54.8933 26.6409 56.0144 28.1735C57.1356 29.7062 58.6023 30.9528 60.2957 31.8121C61.989 32.6714 63.8611 33.1193 65.76 33.1193C68.2578 33.1279 70.6955 32.3535 72.7304 30.9051V31.6628C72.7304 31.7748 72.7525 31.8857 72.7954 31.9891C72.8383 32.0926 72.9012 32.1866 72.9804 32.2658C73.0597 32.3449 73.1538 32.4077 73.2573 32.4504C73.3608 32.4932 73.4717 32.5151 73.5837 32.515H78.093C78.3192 32.515 78.536 32.4253 78.696 32.2655C78.856 32.1057 78.946 31.8889 78.9463 31.6628V1.50178C78.946 1.18367 78.8195 0.878696 78.5945 0.653862C78.3694 0.429029 78.0643 0.302735 77.7462 0.302735" fill="#7149FD"/>
<path d="M97.5542 31.4109V10.0772C97.5542 9.93202 97.5828 9.78826 97.6384 9.65413C97.6939 9.52 97.7753 9.39813 97.878 9.29548C97.9807 9.19282 98.1025 9.11139 98.2366 9.05583C98.3708 9.00028 98.5145 8.97168 98.6597 8.97168H102.689C102.833 8.97195 102.976 9.00052 103.109 9.05575C103.243 9.11096 103.365 9.19242 103.467 9.29535C103.57 9.39787 103.652 9.51972 103.708 9.65389C103.763 9.78806 103.792 9.93191 103.792 10.0772V31.4098C103.792 31.5541 103.763 31.6969 103.708 31.8302C103.653 31.9649 103.571 32.0871 103.467 32.1896C103.365 32.2928 103.243 32.3743 103.109 32.4292C102.976 32.4844 102.833 32.513 102.689 32.5132H98.6597C98.5154 32.513 98.3726 32.4845 98.2394 32.4292C98.0372 32.3456 97.8644 32.2039 97.7428 32.0221C97.6213 31.8403 97.5563 31.6265 97.5563 31.4077" fill="#7149FD"/>
<path d="M100.673 0.144043C101.627 0.144322 102.542 0.523503 103.217 1.19823C103.892 1.87296 104.271 2.78801 104.271 3.74222C104.272 4.394 104.095 5.03369 103.761 5.59297C103.426 6.15225 102.946 6.61012 102.371 6.91767C101.796 7.22523 101.149 7.37091 100.498 7.33918C99.8469 7.30744 99.2167 7.09947 98.6747 6.73748C98.1327 6.37549 97.6992 5.87307 97.4205 5.28388C97.1418 4.6947 97.0284 4.04087 97.0923 3.39224C97.1563 2.7436 97.3952 2.12452 97.7836 1.6011C98.172 1.07769 98.6953 0.669598 99.2975 0.420422C99.7332 0.237856 100.201 0.143901 100.673 0.144043" fill="#7149FD"/>
<path d="M127.463 26.992L124.816 24.6959C124.678 24.5775 124.518 24.4881 124.345 24.4329C124.172 24.3776 123.99 24.3577 123.809 24.3743C123.631 24.3904 123.458 24.4428 123.301 24.5283C123.144 24.6138 123.006 24.7305 122.896 24.8714C122.1 25.883 121.007 26.6204 119.771 26.9808C118.535 27.3411 117.217 27.3062 116.002 26.8811C114.786 26.4559 113.734 25.6617 112.993 24.6094C112.251 23.5571 111.856 22.2994 111.864 21.0119C111.872 19.7244 112.282 18.4716 113.036 17.4284C113.791 16.3853 114.853 15.6039 116.073 15.1936C117.293 14.7833 118.611 14.7645 119.843 15.1399C121.075 15.5153 122.158 16.266 122.942 17.2872C123.055 17.4339 123.197 17.5561 123.358 17.6464C123.52 17.7367 123.698 17.7933 123.882 17.8127C124.062 17.8321 124.245 17.8141 124.418 17.7599C124.591 17.7057 124.751 17.6163 124.888 17.4974L127.537 15.2044C127.799 14.9782 127.963 14.6589 127.995 14.3138C128.026 13.9688 127.923 13.625 127.706 13.3549C126.113 11.3556 123.939 9.89957 121.485 9.1876C119.03 8.47562 116.414 8.54274 113.999 9.3797C111.584 10.2167 109.488 11.7823 108 13.8606C106.512 15.939 105.705 18.4278 105.691 20.9839C105.677 23.5399 106.456 26.0374 107.921 28.132C109.386 30.2266 111.465 31.8151 113.871 32.6786C116.277 33.542 118.891 33.6378 121.354 32.9529C123.817 32.2679 126.006 30.8358 127.621 28.8542C127.844 28.5849 127.952 28.2388 127.923 27.8903C127.893 27.5419 127.728 27.219 127.463 26.991" fill="#7149FD"/>
<path d="M93.6323 8.97314C90.56 9.00963 87.6166 10.2137 85.3995 12.341C83.1825 14.4683 81.8578 17.3594 81.6945 20.4276V31.6614C81.6945 31.8874 81.7843 32.1042 81.9441 32.264C82.1039 32.4239 82.3207 32.5137 82.5467 32.5137H87.1348C87.3609 32.5137 87.5778 32.4239 87.7378 32.2641C87.8978 32.1043 87.9878 31.8875 87.9881 31.6614V21.0476C87.9881 17.9507 90.4755 15.2342 93.3108 15.2342H94.2565C94.5747 15.2337 94.8796 15.107 95.1045 14.8821C95.3295 14.6572 95.4561 14.3522 95.4566 14.0341V10.4654C95.4564 10.0695 95.2989 9.68996 95.0189 9.41015C94.7389 9.13033 94.3592 8.97314 93.9634 8.97314H93.6323Z" fill="#7149FD"/>
<path d="M14.4799 13.5017C12.745 13.1225 11.0479 12.5872 9.40945 11.9023C8.83996 11.7078 8.35652 11.3201 8.04305 10.8064C7.72958 10.2928 7.60586 9.68553 7.69339 9.09015C7.9561 7.89216 9.34745 6.61115 12.4643 6.61115L19.0606 6.6017C19.2869 6.6017 19.504 6.51179 19.664 6.35177C19.824 6.19174 19.9139 5.9747 19.9139 5.74839V0.854493C19.9139 0.628086 19.8241 0.410936 19.6641 0.250743C19.5041 0.0905504 19.287 0.000415206 19.0606 0.000136722H12.4643C10.1834 -0.0416512 7.92189 0.42502 5.84386 1.36627C4.17176 2.13823 2.73036 3.33366 1.66245 4.83413C0.844976 5.97656 0.320092 7.30201 0.133771 8.69438C-0.0525497 10.0868 0.105376 11.5036 0.593717 12.8207C2.13009 16.938 6.15702 18.1161 11.7329 19.7449C13.2041 20.1737 14.7153 20.6171 16.3683 21.1594C17.0239 21.2953 17.6097 21.6603 18.0206 22.1889C18.4315 22.7175 18.6408 23.3751 18.6109 24.044C18.4007 25.3912 16.6678 26.832 12.4643 26.832H9.67848C9.45235 26.832 9.23547 26.9217 9.07547 27.0815C8.91547 27.2413 8.82545 27.4581 8.82517 27.6842V32.6233C8.82545 32.8494 8.91547 33.0662 9.07547 33.226C9.23547 33.3858 9.45235 33.4756 9.67848 33.4756H12.4643C15.5047 33.5847 18.5208 32.8963 21.2128 31.4789C23.1272 30.4228 24.6351 28.7588 25.4983 26.75C26.1305 25.3042 26.3335 23.7071 26.0828 22.1491C25.8322 20.5912 25.1386 19.1382 24.0848 17.9637C21.3652 15.2377 17.8647 14.3571 14.4799 13.5017Z" fill="#7149FD"/>
<path d="M34.6356 17.9596C35.1777 17.041 35.95 16.2797 36.8762 15.7508C37.8025 15.222 38.8507 14.9438 39.9173 14.9438C40.9839 14.9438 42.032 15.222 42.9583 15.7508C43.8845 16.2797 44.6568 17.041 45.1989 17.9596H34.6356ZM48.4451 12.1903C46.9928 10.7976 45.2211 9.78232 43.2853 9.23337C41.3495 8.68442 39.3086 8.61858 37.3414 9.04162C35.3743 9.46466 33.5409 10.3637 32.0019 11.6599C30.4628 12.9561 29.2652 14.6099 28.5138 16.4765C27.7625 18.3431 27.4803 20.3655 27.6921 22.3664C27.9039 24.3674 28.6032 26.2859 29.7287 27.9538C30.8542 29.6217 32.3716 30.9882 34.1478 31.9335C35.9241 32.8788 37.9051 33.374 39.9173 33.3758C41.7022 33.3701 43.4681 33.0084 45.1116 32.3119C46.755 31.6154 48.2431 30.5981 49.4886 29.3195V29.3195L50.0077 28.7867C50.0886 28.7034 50.1517 28.6044 50.1931 28.4958C50.2344 28.3873 50.2532 28.2714 50.2483 28.1554C50.2434 28.0393 50.2149 27.9255 50.1645 27.8208C50.1141 27.7161 50.0428 27.6229 49.9552 27.5467L49.559 27.2041L46.5608 24.6095C46.3949 24.4659 46.18 24.3918 45.9608 24.4026C45.7416 24.4134 45.535 24.5082 45.3839 24.6673L45.0381 25.0319C44.3708 25.7155 43.5744 26.2599 42.6953 26.6336C41.8161 27.0074 40.8715 27.2031 39.9162 27.2093C38.6718 27.2091 37.4568 26.8305 36.4326 26.1237C35.4083 25.4168 34.6233 24.4152 34.1816 23.2518H50.8452C51.1839 23.2496 51.5094 23.1201 51.7571 22.889C52.0047 22.6579 52.1564 22.3421 52.1819 22.0044C52.2093 21.6366 52.2208 21.2625 52.2145 20.8936C52.1984 19.2649 51.8566 17.6558 51.2092 16.1611C50.5619 14.6664 49.622 13.3163 48.4451 12.1903" fill="#7149FD"/>
</g>
<defs>
<clipPath id="clip0_2985_5685">
<rect width="128" height="33.7444" fill="white"/>
</clipPath>
</defs>
</svg>
